<svg width="500" height="810" viewBox="0 0 500 810" fill="none" xmlns="http://www.w3.org/2000/svg">
<path fill-rule="evenodd" clip-rule="evenodd" d="M296.027 0.386067C295.332 0.503265 293.158 0.920543 291.195 1.31306C288.07 1.93795 286.75 1.92783 280.587 1.23121C266.08 -0.409567 247.682 1.25899 228.769 5.92975C224.235 7.0492 223.396 7.38311 224.774 7.51951C226.268 7.66803 225.69 7.96557 220.733 9.60331C204.412 14.9949 188.475 23.0756 174.542 33.0223C159.792 43.5514 144.21 59.1302 134.204 73.3491C132.909 75.1905 131.848 76.8868 131.848 77.1187C131.848 77.351 132.928 76.4943 134.248 75.2147C136.274 73.2501 139.931 70.8102 139.931 71.4229C139.931 71.5245 138.806 73.8174 137.43 76.5185C130.846 89.4513 126.434 105.227 124.792 121.708C124.128 128.37 124.121 144.622 124.777 151.838C125.482 159.57 127.081 170.008 128.571 176.591C130.346 184.436 132.853 193.322 133.539 194.205C134.023 194.828 134.622 194.865 137.098 194.424C146.642 192.725 159.106 199.646 168.343 211.773L170.998 215.258L171.318 212.595C171.494 211.13 171.78 207.067 171.954 203.566L172.269 197.199L170.785 196.746L169.302 196.293L170.489 193.514L171.677 190.736L170.459 190.577L169.241 190.417L171.256 186.745C173.565 182.537 173.645 182.214 172.261 182.653C170.953 183.069 170.986 182.8 172.55 180.322C173.992 178.039 173.909 177.478 172.261 178.359C170.531 179.286 170.573 178.697 172.464 175.516C173.855 173.176 174.089 172.443 173.572 172.044C173.154 171.721 173.06 171.173 173.312 170.529C173.923 168.962 173.855 168.761 172.705 168.761C171.809 168.761 171.736 168.636 172.261 168.003C172.802 167.352 172.618 167.246 170.955 167.246H169.02L171.086 165.099C172.412 163.722 173.471 161.956 174.04 160.173C175.232 156.443 177.396 152.172 180.567 147.292C183.613 142.603 190.437 134.041 193.431 131.15L195.499 129.153V131.024C195.499 133.421 196.12 133.412 196.99 131C198.693 126.28 210.563 117.258 221.338 112.492L224.183 111.234L223.92 112.34C223.733 113.128 224.628 112.502 227.034 110.162L230.41 106.878L230.101 109.657L229.791 112.435L230.961 109.152C232.014 106.194 235.683 99.0484 236.149 99.0484C236.252 99.0484 236.114 99.8536 235.842 100.838C235.465 102.202 235.554 103.313 236.214 105.51C237.076 108.38 237.082 108.386 237.442 106.755C237.801 105.13 238.755 103.595 239.406 103.595C239.592 103.595 239.962 104.329 240.228 105.226C240.749 106.983 243.849 109.602 248.23 111.987L250.745 113.356L249.582 111.474C246.314 106.186 243.796 98.8276 243.774 94.5019C243.758 91.279 244.946 87.8186 247.417 83.8934C249.233 81.0084 258.054 71.8867 260.071 70.8071L261.224 70.1898L260.008 72.1165C259.34 73.1759 258.279 75.0657 257.653 76.316L256.512 78.5892L258.409 76.316C260.914 73.3128 277.245 57.0974 283.741 51.1638L288.878 46.4703L291.97 50.5323C293.671 52.7662 295.186 54.5938 295.338 54.5938C295.489 54.5938 296.48 53.8553 297.538 52.9521C298.597 52.0488 301.091 50.4348 303.079 49.3644C306.622 47.4574 306.715 47.4372 307.729 48.354C311.476 51.7427 313.446 62.0945 314.061 81.6202L314.395 92.2287L315.953 84.9947C316.809 81.0165 317.678 77.9284 317.882 78.133C318.369 78.6195 318.307 87.5008 317.795 90.6116C317.576 91.9448 317.576 92.8541 317.796 92.6323C318.42 92.0024 319.249 86.0763 319.336 81.6202C319.433 76.6984 319.567 77.4849 320.707 89.7028L321.602 99.301L322.05 88.4399L322.499 77.5789L323.11 84.9038C323.447 88.9325 323.771 92.3423 323.831 92.4813C323.89 92.6202 324.32 90.4606 324.784 87.6822L325.63 82.6305L326.075 88.9451L326.52 95.2597L327.61 84.2693C328.209 78.2245 328.829 73.1506 328.986 72.9935C329.659 72.3201 330.718 80.5043 331.214 90.208C331.591 97.5945 331.612 97.6961 332.021 94.2493C332.652 88.9426 331.894 69.6781 330.629 58.8878L330.392 56.8671L331.138 58.4942C332.796 62.1097 333.509 69.2244 333.809 85.1564C334.102 100.673 334.389 101.737 335.206 90.3343C335.401 87.6256 335.723 85.4089 335.923 85.4089C336.123 85.4089 336.606 88.5349 336.995 92.355L337.703 99.301L338.025 94.5019C338.203 91.8624 338.394 87.7706 338.45 85.4089L338.553 81.115L339.847 86.8047C340.559 89.9337 341.227 92.4095 341.33 92.306C341.434 92.2024 341.058 88.352 340.495 83.7495C339.932 79.1469 339.493 74.9662 339.519 74.4595C339.545 73.9523 341 77.8567 342.752 83.1357L345.936 92.7338L346.039 88.4399L346.142 84.146L348.354 94.5019L350.566 104.858L350.313 99.938C350.015 94.1483 348.498 84.8078 346.858 78.664C346.216 76.2614 345.782 74.2953 345.893 74.2953C346.003 74.2953 346.636 75.4885 347.298 76.9474C348.997 80.6877 351.657 89.6852 355.402 104.353C357.175 111.299 358.635 116.713 358.647 116.383C358.658 116.054 357.613 110.939 356.325 105.017C353.382 91.4881 353.387 91.5154 354.081 92.4813C355.441 94.3746 360.409 111.789 363.376 125.064C363.507 125.653 363.633 125.337 363.677 124.307C363.748 122.6 363.779 122.574 364.555 123.549C365.806 125.121 369.886 133.944 372.965 141.735C375.094 147.122 375.838 149.709 376.092 152.596C376.673 159.248 377.353 162.844 378.861 167.246C380.32 171.507 382.055 181.692 382.73 189.963C383.175 195.412 383.645 194.23 384.407 185.745C385.368 175.032 388.255 162.656 391.137 156.89C391.693 155.778 393.254 153.14 394.606 151.026C398.352 145.172 399.039 142.664 399.92 131.632C400.504 124.317 400.616 117.826 400.393 104.353L400.1 86.6718L401.877 89.9554C402.855 91.7614 403.544 92.7843 403.41 92.2287C401.099 82.6785 400.303 80.0259 398.786 76.8211C393.763 66.2081 384.565 55.1031 363.012 33.6295C342.807 13.4986 338.9 10.4146 327.818 5.84994C323.183 3.94092 323.83 3.48222 328.922 5.06743C330.672 5.6115 332.204 5.95602 332.328 5.83226C332.876 5.28415 326.647 3.03515 322.043 2.11878C313.467 0.411826 300.859 -0.427755 296.027 0.386067ZM197.563 291.095C197.587 292.855 198 302.251 198.479 311.976C199.423 331.077 199.68 331.455 200.545 315.007C200.837 309.45 201.211 303.182 201.376 301.077L201.676 297.251L204.964 298.997C208.295 300.766 220.092 306.166 220.624 306.166C220.784 306.166 218.777 304.646 216.163 302.788C211.133 299.212 202.264 292.245 201.814 291.517C201.667 291.279 200.641 290.367 199.533 289.49L197.52 287.895L197.563 291.095ZM333.662 319.673C329.623 321.853 322.73 324.031 316.234 325.181C311.807 325.965 308.296 326.12 295.017 326.117C280.866 326.115 275.085 325.805 266.222 324.576C265.25 324.441 267.182 325.113 270.516 326.069C288.687 331.281 302.388 338.303 309.109 345.853C313.441 350.719 316.459 358.924 318.33 370.93C320.142 382.549 320.203 414.112 318.449 432.205L318.155 435.236L320.148 431.195C322.364 426.701 326.236 421.585 329.63 418.666L331.863 416.745L333.388 417.872C338.644 421.758 341.096 430.013 341.174 444.076C341.21 450.743 341.314 452.109 341.597 449.633C342.303 443.464 342.96 428.172 342.77 422.354L342.581 416.545L343.128 423.617C343.891 433.47 342.895 448.037 340.694 459.231C340.557 459.926 341.338 458.082 342.428 455.134C347.912 440.31 352.404 435.311 356.183 439.825C356.577 440.296 357.171 442.411 357.501 444.525L358.104 448.37L357.872 442.7C357.604 436.13 356.714 430.9 354.539 423.112C351.465 412.105 344.731 393.997 337.443 377.142L334.822 371.08L335.09 364.008C335.238 360.118 335.727 349.132 336.178 339.593C336.629 330.055 336.929 321.303 336.845 320.144L336.693 318.038L333.662 319.673ZM187.451 350.984L175.677 370.575L175.941 378.405C176.223 386.76 177.184 393.246 179.148 400.043C180.561 404.934 183.378 412.417 183.688 412.106C183.805 411.989 183.24 409.184 182.431 405.873C179.991 395.882 179.184 390.262 179.139 382.951C179.107 377.836 179.324 375.311 180.005 372.848C181.224 368.445 185.698 359.187 189.228 353.766C192.499 348.744 197.973 341.528 198.512 341.528C198.71 341.528 199.155 342.153 199.5 342.917C200.635 345.427 211.873 365.23 212.059 365.044C212.158 364.945 211.801 363.989 211.263 362.92C209.457 359.325 204.956 347.906 202.079 339.618L199.225 331.394L187.451 350.984ZM152.055 383.395C83.719 414.551 25.9387 442.507 16.1653 449.143C13.5223 450.938 10.7156 454.071 6.22364 460.242C4.27522 462.918 0 470.325 0 471.023C0 471.21 1.56297 470.324 3.47351 469.053L6.94753 466.744L11.0222 467.301C16.7588 468.087 20.4865 469.108 23.9954 470.855L27.0263 472.364L24.7531 470.339C21.765 467.678 15.3338 464.502 10.6216 463.362L6.84649 462.447L10.6216 459.791C39.3761 439.555 92.9353 414.034 160.264 388.486L173.272 383.55L173.29 391.965C173.339 414.052 174.729 502.28 175.033 502.584C175.672 503.221 211.609 502.957 217.221 502.274C233.436 500.3 243.552 497.717 251.671 493.477C256.473 490.97 256.63 490.927 259.711 491.275C264.085 491.771 269.915 493.712 273.8 495.969C280.859 500.07 287.874 508.854 291.48 518.111C292.34 520.318 293.262 522.579 293.528 523.135L294.012 524.145L293.767 523.135C293.633 522.579 292.043 515.191 290.233 506.717C288.424 498.243 286.855 490.935 286.747 490.478C286.58 489.772 286.788 489.715 288.132 490.105C289.001 490.358 294.234 491.831 299.761 493.379C305.288 494.928 310.175 496.308 310.622 496.447C311.069 496.586 309.048 495.402 306.13 493.816C290.072 485.087 280.427 479.088 273.974 473.816C270.566 471.032 267.303 467.207 266.551 465.114C266.314 464.456 265.953 464.29 265.334 464.554C264.85 464.761 260.541 466.262 255.758 467.888C228.75 477.075 204.983 480.124 191.529 476.129L189.081 475.402L188.215 468.706C184.827 442.514 181.57 422.39 179.115 412.488C176.39 401.498 173.891 380.901 174.628 375.5C174.789 374.319 174.72 373.359 174.475 373.365C174.23 373.371 164.141 377.885 152.055 383.395ZM222.26 384.214C225.375 390.023 233.939 404.673 234.219 404.673C234.35 404.673 234.358 404.503 234.237 404.295C234.117 404.086 231.113 398.801 227.563 392.549C221.145 381.249 218.119 376.493 222.26 384.214ZM356.373 397.98C357.189 402.477 363.42 413.918 371.709 426.143C379.927 438.263 405.902 472.366 406.916 472.366C407.056 472.366 406.072 470.604 404.729 468.451C390.431 445.517 375.338 420.89 375.338 420.494C375.338 420.074 378.599 417.44 380.712 416.153C381.561 415.636 390.264 416.938 400.596 419.127C406.941 420.472 436.766 427.845 447.576 430.741C448.503 430.99 448.698 430.927 448.31 430.507C446.999 429.088 417.355 417.724 381.652 404.955C371.094 401.179 361.242 397.639 359.759 397.088C356.1 395.728 355.97 395.762 356.373 397.98ZM258.047 447.36C261.537 455.834 264.577 462.767 264.802 462.767C265.027 462.767 265.212 462.394 265.212 461.936C265.212 461.376 266.075 461.915 267.864 463.594C270.511 466.079 276.627 470.907 281.882 474.661L284.661 476.646L280.326 471.823C271.605 462.119 267.444 456.486 258.428 442.182C254.882 436.555 251.918 431.952 251.841 431.952C251.764 431.952 254.556 438.886 258.047 447.36ZM360.968 443.526C360.812 443.779 360.327 445.866 359.892 448.162C357.458 460.991 352.44 470.316 345.319 475.241L342.755 477.014L348.059 476.744C354.251 476.428 360.597 475.216 363.309 473.832C364.362 473.295 366.617 471.955 368.321 470.854C372.552 468.119 374.078 467.905 377.658 469.543C379.848 470.546 382.022 472.351 386.694 477.045C390.079 480.445 394.358 484.932 396.205 487.015L399.562 490.804L397.09 483.227C395.73 479.059 393.808 473.035 392.818 469.84C390.573 462.599 388.319 458.724 383.19 453.285C376.387 446.072 370.96 443.066 364.74 443.066C362.822 443.066 361.125 443.273 360.968 443.526ZM36.4118 479.754C36.3901 480.066 37.946 486.772 39.8702 494.656C56.9463 564.626 70.4928 621.139 71.9447 628.462C74.2684 640.185 75.645 649.826 76.287 658.876C76.7422 665.294 76.676 667.638 75.7996 676.085C74.5968 687.674 73.6309 701.926 72.23 728.737C71.6643 739.573 70.9894 750.176 70.7302 752.299C70.0927 757.532 65.7321 770.336 54.8534 798.919C52.7458 804.456 51.0217 809.172 51.0217 809.401C51.0217 809.629 58.9781 809.816 68.7025 809.816C83.0295 809.816 86.3833 809.689 86.3833 809.148C86.3833 808.78 84.0297 797.427 81.1533 783.918L75.9228 759.356L78.6815 716.768C81.2574 677.002 81.4018 673.727 80.8613 667.359C79.7131 653.843 76.1289 630.087 73.2661 617.024C72.0027 611.26 38.0637 483.835 36.8897 480.448C36.6487 479.754 36.4335 479.441 36.4118 479.754ZM324.564 495.165C319.843 498.494 315.648 501.413 315.24 501.65C314.647 501.995 315.493 503.572 319.492 509.574C322.238 513.695 324.484 517.342 324.484 517.679C324.484 518.016 324.699 518.159 324.96 517.998C325.224 517.835 325.311 518.124 325.155 518.651C325.001 519.172 325.202 520.281 325.601 521.114C326.198 522.361 326.271 522.406 326.01 521.367C325.836 520.672 325.592 519.763 325.468 519.346C325.307 518.802 325.453 518.842 325.983 519.487C326.655 520.304 326.753 520.121 327.067 517.466C327.628 512.726 329.708 502.898 331.631 495.905C332.617 492.32 333.361 489.325 333.285 489.249C333.209 489.173 329.284 491.835 324.564 495.165ZM483.801 494.088C482.794 498.417 483.126 520.958 484.461 538.795C485.801 556.7 489.059 586.158 491.612 603.456C492.187 607.346 492.937 612.574 493.281 615.075C493.625 617.575 494.034 619.28 494.19 618.864C494.345 618.447 494.602 615.037 494.759 611.286C494.917 607.535 495.73 593.555 496.566 580.218C497.402 566.882 498.088 555.42 498.09 554.748C498.093 553.685 497.717 553.941 495.211 556.71C493.626 558.461 492.258 559.681 492.171 559.421C492.084 559.161 493.842 550.225 496.076 539.565C498.311 528.904 500.076 519.99 499.998 519.756C499.92 519.521 497.928 525.455 495.572 532.942C493.215 540.429 491.21 546.477 491.115 546.383C491.021 546.288 489.403 534.199 487.519 519.518C485.636 504.837 483.963 493.393 483.801 494.088ZM325.1 539.789C325.502 540.752 325.832 542.563 325.832 543.814C325.832 545.716 325.557 546.361 324.147 547.771C323.22 548.698 321.345 549.828 319.979 550.282L317.496 551.109L319.77 551.139C322.505 551.173 324.921 549.841 326.339 547.514C327.652 545.36 327.602 543.91 326.102 540.689C324.729 537.74 323.952 537.042 325.1 539.789ZM331.648 539.047C331.801 539.742 332.937 544.251 334.172 549.067C339.466 569.692 340.984 580.368 345.499 628.714C349.972 676.604 349.93 676.184 350.006 673.421C350.041 672.171 348.834 649.552 347.323 623.157L344.578 575.167L338.94 559.001C332.871 541.6 331.213 537.063 331.648 539.047ZM300.881 567.337C301.115 572.309 302.728 592.896 314.953 747.014C317.602 780.405 319.77 808.195 319.77 808.77C319.77 809.673 320.081 809.816 322.043 809.816C323.293 809.816 324.316 809.712 324.316 809.585C324.316 809.458 321.701 781.781 318.504 748.081C315.308 714.381 310.08 659.188 306.886 625.431C303.692 591.673 300.978 563.598 300.855 563.043C300.731 562.487 300.743 564.419 300.881 567.337ZM337.496 652.356C337.394 656.647 334.097 659.851 329.445 660.178C327.016 660.349 326.306 660.186 324.695 659.085C323.653 658.374 322.801 657.992 322.801 658.237C322.801 659.052 325.851 661.263 327.769 661.837C333.318 663.5 339.59 657.534 338.018 652.088L337.541 650.436L337.496 652.356ZM207.118 675.162C175.305 679.385 139.895 684.063 128.43 685.557C116.965 687.052 107.34 688.425 107.041 688.609C106.543 688.917 108.709 701.716 125.417 797.187L127.583 809.563L132.538 809.708L137.493 809.854L137.153 808.193C136.883 806.88 122.632 742.215 113.446 700.628L111.812 693.231L125.998 690.913C206.867 677.701 267.118 667.818 267.738 667.664C271.373 666.764 256.798 668.567 207.118 675.162ZM354.882 733.789C355.016 735.734 355.932 752.897 356.918 771.929C357.904 790.961 358.825 807.272 358.964 808.174C359.202 809.708 359.35 809.816 361.222 809.816H363.226L362.95 807.922C362.798 806.88 360.973 789.205 358.895 768.645C355.502 735.074 354.184 723.622 354.882 733.789ZM277.626 743.387C278.129 767.718 281.136 803.597 283.14 809.185C283.289 809.602 284.481 809.816 286.653 809.816H289.94L289.411 808.427C288.499 806.034 284.951 791.169 283.653 784.305C281.266 771.678 279.077 754.315 277.858 738.335C277.461 733.133 277.428 733.849 277.626 743.387ZM332.41 781.554C332.429 782.775 334.212 786.268 335.319 787.253C336.851 788.614 339.937 788.861 342.946 787.862C345.792 786.916 347.028 785.86 344.41 786.611C340.045 787.863 336.017 786.529 333.853 783.117C333.053 781.856 332.404 781.152 332.41 781.554Z" fill="#050504"/>
</svg>
