<svg width="200" height="283" viewBox="0 0 200 283" fill="none" xmlns="http://www.w3.org/2000/svg">
<path d="M0 105.322L0.00378286 210.649L19.2472 225.614L38.4906 240.579L38.5096 213.894L38.5285 187.214L46.1698 193.157L53.8112 199.1L53.8301 225.81L53.8491 252.521L73.066 267.475C83.6353 275.695 92.2943 282.425 92.3132 282.425C92.3283 282.429 92.3397 218.884 92.3397 141.214V-1.05076e-06H46.1698H0V105.322ZM53.8301 101.437C53.8301 125.478 53.8188 145.148 53.8037 145.148C53.7848 145.148 50.3423 142.478 46.1509 139.217L38.5285 133.285L38.5171 107.006L38.5096 80.7263H34.6889C32.5856 80.7263 30.8682 80.715 30.8682 80.6998C30.8682 80.6809 32.5894 75.506 34.6926 69.1999L38.5171 57.7265H46.1736H53.8301V101.437Z" fill="#E7E7E7"/>
<path d="M107.66 141.218C107.66 254.19 107.672 282.433 107.709 282.402C107.732 282.38 128.511 266.223 153.879 246.495L200 210.622V105.311V0.000205639H153.83H107.66V141.218ZM161.452 122.425V187.12L153.841 193.04C149.658 196.297 146.219 198.964 146.2 198.971C146.185 198.979 146.17 167.203 146.17 128.357V57.7267H153.811H161.452V122.425Z" fill="#E7E7E7"/>
</svg>
